<svg width="80" height="80" viewBox="0 0 209 315" fill="none" xmlns="http://www.w3.org/2000/svg">
<path d="M66.0001 2.33343C51.2001 4.73343 30.9334 10.0668 18.9334 14.7334L9.33342 18.3334L8.93342 39.5334C8.80008 51.1334 9.06675 60.3334 9.60008 60.0668C10.2667 59.9334 14.5334 57.4001 19.3334 54.7334C41.2001 42.3334 64.9334 35.1334 88.0001 34.0668C111.867 32.8668 127.733 37.2668 140 48.4668C150.667 58.3334 154.4 67.0001 155.067 83.2668C155.733 98.8668 153.2 111.933 146.8 125.133C134.4 150.867 95.8668 191.4 30.4001 247.4L0.666748 272.733V293.133C0.666748 313.267 0.666748 313.667 3.73341 314.333C5.33341 314.733 52.0001 314.867 107.333 314.733L208 314.333L208.4 297.933L208.8 281.667H129.067C53.3334 281.667 43.3334 281.267 43.3334 279C43.3334 278.467 57.6001 265.8 75.0668 250.867C111.6 219.533 158 174.067 170 157.667C179.6 144.733 188.8 126.333 192.267 113.667C194.133 107.133 194.667 99.9334 194.667 85.0001C194.667 67.5334 194.267 63.8001 191.6 56.0668C182.667 30.4668 161.467 12.0668 131.333 4.2001C116.8 0.466764 83.2001 -0.599903 66.0001 2.33343Z" fill="black"/>
</svg>
