<svg width="80" height="80" viewBox="0 0 200 315" fill="none" xmlns="http://www.w3.org/2000/svg">
<path d="M14.2668 1.60008C13.7334 2.00008 13.3334 36.8001 13.3334 78.9334C13.3334 147.2 13.6001 155.467 15.4668 156.267C16.5334 156.667 23.8668 156 31.7334 154.667C61.4668 149.867 96.1334 149.867 115.067 154.667C127.467 157.867 137.467 163.333 145.467 171.2C155.6 181.467 158.933 190 159.733 208.8C160.667 232 154.8 248.8 141.2 262.133C127.6 275.6 111.467 281.2 86.6668 281.2C63.2001 281.2 40.1334 275.2 15.0668 262.667C5.86676 258 0.933422 256.133 0.533422 257.2C0.133422 258.133 0.133422 267.467 0.266755 278L0.666755 297.333L8.00009 300.267C19.4668 304.8 36.6668 309.467 51.3334 312C69.2001 315.2 104.667 315.333 118.4 312.267C151.333 304.8 175.467 286.933 188.533 260.267C197.867 241.2 199.333 234.267 199.2 209.333C199.2 190 198.8 187.067 195.6 177.2C187.467 152.8 168 134.133 141.467 125.467C123.733 119.6 115.867 118.8 83.0668 118.8H52.0001V77.2001C52.0001 40.5334 52.2668 35.4667 54.1334 34.8001C55.3334 34.4001 88.2668 34.0001 127.467 34.0001H198.8L198.4 17.6001L198 1.33341L106.533 0.933415C56.2668 0.800081 14.6668 1.06675 14.2668 1.60008Z" fill="black"/>
</svg>
