<svg width="80" height="80" viewBox="0 0 217 320" fill="none" xmlns="http://www.w3.org/2000/svg">
<path d="M120.2 2.20026C53.3999 13.9336 12.3333 61.2669 2.19994 138.2C-0.866728 161 0.199938 210.6 4.06661 227.667C10.3333 255.667 20.1999 275.134 36.1999 291.134C52.7333 307.534 71.5333 316.2 97.5333 319.134C144.2 324.467 187 302.067 206.333 262.334C214.067 246.334 216.6 234.334 216.6 213.667C216.6 184.734 209.933 165.267 194.6 148.867C180.867 134.2 164.867 124.734 147.133 121C114.867 114.334 80.1999 118.867 52.8666 133.667C46.7333 136.867 42.8666 138.334 42.0666 137.534C40.1999 135.667 43.3999 116.867 47.6666 103.667C62.3333 58.7336 96.8666 33.6669 144.067 33.6669C156.067 33.6669 174.733 37.0003 184.733 41.0003C186.867 41.9336 187 40.4669 187 23.2669V4.46693L182.067 2.86693C174.467 0.60026 132.333 0.0669267 120.2 2.20026ZM123 151C149 154.334 166.6 168.067 173.8 191C177.533 202.334 177.8 227.4 174.467 240.334C166.467 271.4 144.2 288.334 111.667 288.334C91.7999 288.334 78.8666 283 64.8666 269.134C54.3333 258.6 47.5333 246.334 43.7999 230.734C40.8666 219.134 38.7333 187.267 39.9333 176.334L40.9999 167.667L52.3333 162.067C72.7333 151.8 98.3333 147.934 123 151Z" fill="black"/>
</svg>
