<svg width="80" height="80" viewBox="0 0 234 309" fill="none" xmlns="http://www.w3.org/2000/svg">
<path d="M74.9333 87.6668L0 175L0.266667 197.4L0.666667 219.667L73.2 220.067C124.133 220.2 146.267 220.867 147.6 221.8C148.933 223 149.333 231.933 149.333 265.933V308.467L167.733 308.067L186 307.667L186.4 264.733L186.667 221.667L189.733 221C191.333 220.6 201.733 220.2 212.667 219.933L232.667 219.667L233.067 207.667C233.733 188.2 235.733 189.8 209.6 189.4L187.333 189L186.933 94.6001L186.667 0.333447H168.267H149.867L74.9333 87.6668ZM149.067 117.133C149.2 153.667 149.067 185 148.667 186.6L148 189.667H88C40.9333 189.667 28 189.267 28 187.933C28 187.133 49.0667 161.667 74.8 131.667C141.467 53.8001 145.333 49.4001 147.067 50.0668C148.267 50.4668 148.8 67.8001 149.067 117.133Z" fill="black"/>
</svg>
