<svg width="80" height="80" viewBox="0 0 203 322" fill="none" xmlns="http://www.w3.org/2000/svg">
<path d="M74.0001 2.13354C60.9334 3.60021 33.4667 10.5335 20.4001 15.6002L10.0001 19.4669V40.2669C10.0001 51.6002 10.4001 60.6669 11.0667 60.4002C11.6001 60.1335 19.4667 56.2669 28.6667 51.7335C55.3334 38.4002 80.1334 32.8002 103.733 34.5335C139.733 37.3335 158.8 55.2002 156.133 83.8669C154.533 101.2 145.467 114.8 130 122.667C118.933 128.267 110 130.267 91.3334 131.2L73.3334 132L72.9334 147.467L72.5334 162.934L91.6001 163.867C122.133 165.2 137.867 169.867 148.667 180.667C164.533 196.534 167.867 229.6 156 253.6C144.8 276.267 121.733 288 88.6668 287.734C65.0668 287.6 40.4001 281.067 15.7334 268.534C8.66675 264.934 2.40008 262 1.73341 262C1.20008 262 0.666748 270.934 0.666748 282V301.867L4.40008 303.734C16.8001 310.134 51.2001 318.667 72.6668 320.8C128.667 326.267 173.2 306.8 192.533 268.267C200.267 252.667 202.533 243.067 202.533 224C202.533 204.934 199.733 193.734 191.6 181.334C182 166.8 169.6 157.867 150.133 151.734C134 146.667 131.2 143.334 141.2 141.467C150.267 139.734 164.8 131.2 174.933 121.6C192 105.334 198.933 85.8669 195.6 63.6002C188.667 18.8002 140.8 -5.46646 74.0001 2.13354Z" fill="black"/>
</svg>
