<svg width="80" height="80" viewBox="0 0 219 321" fill="none" xmlns="http://www.w3.org/2000/svg">
<path d="M91.7334 1.33358C77.7334 3.33358 67.2001 6.40024 56.0001 11.8669C17.7334 30.6669 1.20006 65.8669 12.8001 103.6C17.3334 118.134 29.2001 130.934 50.6667 144.667C58.4001 149.6 58.5334 149.734 55.7334 151.867C54.1334 153.067 49.0667 156.134 44.4001 158.667C32.0001 165.6 15.7334 182.267 9.60006 194.667C-1.99994 218 -1.99994 246.134 9.86672 270C21.0667 292.4 41.2001 308.267 69.6001 316.934C80.6667 320.267 82.9334 320.534 108 320.534C137.867 320.667 145.2 319.467 163.067 311.2C181.867 302.667 199.733 287.067 208.4 271.734C220.933 249.734 222.4 219.067 212.133 196.534C206 183.067 187.067 166.4 166.933 156.534C162.8 154.4 159.467 152.134 159.733 151.334C160 150.667 164 147.867 168.8 145.334C186.267 135.734 202.533 115.6 208.133 96.6669C213.333 79.0669 210.133 56.1336 200.667 41.6002C188 22.1336 167.333 8.66691 141.733 3.46691C129.067 0.800244 102.933 -0.266423 91.7334 1.33358ZM131.6 31.3336C162 38.8002 177.333 62.8002 170.8 93.0669C166.933 111.334 159.867 122.534 144.267 135.067C134.4 143.067 133.467 143.067 110.8 134.134C76.1334 120.534 60.8001 110.267 52.9334 95.4669C49.7334 89.4669 49.3334 87.2002 49.3334 76.0002C49.3334 64.8002 49.7334 62.5336 52.9334 56.6669C65.0667 33.7336 98.0001 23.0669 131.6 31.3336ZM107.067 167.334C151.867 183.2 170.533 196.134 176.133 215.6C177.733 220.934 178.133 226.8 177.733 237.2C177.333 250 176.933 252.267 172.933 260.267C162 282.534 137.6 294.534 106.667 292.934C85.7334 291.867 71.8667 286 58.5334 272.4C39.3334 252.934 35.3334 220.934 48.6667 193.867C55.4667 180.134 76.1334 160 83.7334 160C85.0667 160 95.6001 163.334 107.067 167.334Z" fill="black"/>
</svg>
