<svg width="80" height="80" viewBox="0 0 217 320" fill="none" xmlns="http://www.w3.org/2000/svg">
<path d="M80.6668 2.66681C43.4668 10.8001 14.2668 38.4001 3.73343 74.9335C-0.266567 88.8002 -0.666567 121.867 3.06677 135.333C10.4001 162.8 30.2668 184.8 57.2001 195.333C75.6001 202.533 111.733 203.733 134 198C139.867 196.533 151.067 192.267 159.067 188.4C168.533 183.867 173.867 182 174.667 182.8C175.6 183.733 175.333 188.133 174 196.133C165.6 244.8 138.533 276 97.4668 284.133C81.0668 287.333 54.9334 286.267 41.0668 281.733C32.4001 278.933 30.6668 278.667 30.1334 280.267C28.5334 284.267 29.3334 312.133 31.0668 314.267C33.6001 317.733 45.3334 319.333 66.5334 319.333C89.7334 319.333 106.267 316.8 123.333 310.8C173.467 292.8 204.667 249.467 213.867 184.667C218.4 152.533 217.733 114.533 212 88.6668C201.867 41.8668 173.467 11.4668 132.133 2.66681C120.267 0.266813 91.8668 0.133479 80.6668 2.66681ZM121.733 33.3335C146 38.4001 164.133 57.6001 172 86.2668C176.267 102.4 178.533 131.733 176.533 146.533C175.6 152.533 175.333 152.933 168.133 156.533C149.333 166 125.333 170.8 102.8 169.6C78.5334 168.267 62.2668 160.8 51.3334 146C43.7334 135.6 41.0668 126.4 40.2668 108.4C39.6001 89.7335 41.8668 77.2002 48.8001 63.4668C61.2001 38.6668 90.1334 26.6668 121.733 33.3335Z" fill="black"/>
</svg>
