<svg width="80" height="80" viewBox="0 0 212 321" fill="none" xmlns="http://www.w3.org/2000/svg">
<path d="M86.0001 1.66675C64.9334 5.00008 50.4001 12.3334 35.7334 27.1334C27.3334 35.6667 24.4001 39.8001 18.8001 51.2667C11.7334 65.6667 6.93339 81.8001 3.20006 103C0.266726 119.8 -0.933274 181.267 1.20006 202.067C5.86673 246.333 16.8001 275.8 36.0001 295C46.8001 305.8 56.2667 311.667 71.3334 316.333C84.5334 320.6 114.933 321.533 130.8 318.467C172.267 310.067 197.2 278.733 206.8 223C214.933 175.133 212.267 109.533 200.667 72.3334C188.933 35.1334 166.133 11.4001 134.667 3.66675C124.133 1.13342 96.9334 0.0667509 86.0001 1.66675ZM120.267 33.8001C140.8 38.2001 153.467 50.3334 161.733 73.2667C167.067 87.8001 169.333 102.467 170.933 132.6C172.8 166.2 170.933 209.267 166.533 230.333C158.267 270.733 140.133 288.333 106.667 288.6C79.7334 288.867 63.4667 279.533 52.9334 257.533C42.9334 236.6 39.7334 214.467 39.6001 164.333C39.4667 99.1334 45.8667 67.4001 62.6667 49.1334C75.3334 35.4001 98.5334 29.1334 120.267 33.8001Z" fill="black"/>
</svg>
