<svg width="80" height="80" viewBox="0 0 166 310" fill="none" xmlns="http://www.w3.org/2000/svg">
<path d="M73.1334 2.2668C68.6 18.9335 67.9334 20.1335 60.4667 27.4668C54.4667 33.3335 50.8667 35.6001 44.2 37.7335C34.8667 40.9335 20.4667 43.2001 10.7334 43.3335C0.333374 43.3335 0.333374 43.3335 0.333374 57.4668V70.0001H31.6667C61.1334 70.0001 63 70.1335 64.3334 72.5335C66.2 76.1335 66.2 274.533 64.3334 278.133C63 280.533 61.1334 280.667 31.6667 280.667H0.333374V294.667C0.333374 308 0.466707 308.667 3.40004 309.333C5.00004 309.733 42.0667 309.867 85.6667 309.733L165 309.333L165.4 294.933L165.8 280.667H136.067C119.667 280.667 105.533 280.133 104.733 279.6C103.4 278.8 103 248.8 102.733 139.867L102.333 1.33347L87.9334 0.933466C77.1334 0.666799 73.5334 0.933466 73.1334 2.2668Z" fill="black"/>
</svg>
